<svg width="20" height="20" viewBox="0 0 20 20" fill="none" xmlns="http://www.w3.org/2000/svg">
<path d="M4.38838 8.13711C5.16553 5.78219 7.37859 4.09091 9.99988 4.09091C11.409 4.09091 12.6817 4.59091 13.6817 5.40909L16.5908 2.5C14.8181 0.954545 12.5453 0 9.99988 0C6.05827 0 2.66467 2.24858 1.0332 5.54169L4.38838 8.13711Z" fill="#EA4335"/>
<path d="M13.3673 15.0105C12.4591 15.5969 11.3051 15.9091 10 15.9091C7.38877 15.9091 5.18263 14.2307 4.39752 11.8899L1.03125 14.4458C2.66069 17.7447 6.0542 20 10 20C12.4441 20 14.7795 19.1312 16.5285 17.4996L13.3673 15.0105Z" fill="#34A853"/>
<path d="M16.5285 17.4996C18.3576 15.7934 19.5455 13.253 19.5455 9.99994C19.5455 9.40904 19.4545 8.77267 19.3182 8.18176H10V12.0454H15.3636C15.099 13.3446 14.3886 14.351 13.3673 15.0104L16.5285 17.4996Z" fill="#4A90E2"/>
<path d="M4.39748 11.89C4.19861 11.297 4.09091 10.6615 4.09091 10.0001C4.09091 9.34863 4.19536 8.7224 4.3885 8.13717L1.03333 5.54175C0.363823 6.88375 0 8.39622 0 10.0001C0 11.5997 0.370651 13.1085 1.03122 14.4459L4.39748 11.89Z" fill="#FBBC05"/>
</svg>
