<svg width="250" height="250" viewBox="0 0 250 250" fill="none" xmlns="http://www.w3.org/2000/svg">
<path d="M240.192 204.02C233.921 189.987 224.82 177.239 213.397 166.489C202.009 155.707 188.518 147.111 173.67 141.175C173.537 141.112 173.404 141.08 173.271 141.018C193.982 126.884 207.446 103.863 207.446 77.8894C207.446 34.8618 170.545 0 125 0C79.4551 0 42.5537 34.8618 42.5537 77.8894C42.5537 103.863 56.0177 126.884 76.729 141.049C76.5961 141.112 76.4631 141.143 76.3301 141.206C61.4366 147.142 48.0723 155.653 36.603 166.52C25.1905 177.279 16.0913 190.024 9.80795 204.052C3.63519 217.784 0.30608 232.508 0.000831311 247.425C-0.0080418 247.76 0.0541927 248.093 0.18387 248.405C0.313547 248.718 0.508041 249.002 0.755893 249.242C1.00374 249.482 1.29994 249.673 1.62702 249.803C1.95411 249.933 2.30546 250 2.66039 250H22.6071C24.0698 250 25.2334 248.901 25.2666 247.55C25.9315 223.304 36.2373 200.597 54.4553 183.386C73.3049 165.578 98.3379 155.779 125 155.779C151.662 155.779 176.695 165.578 195.545 183.386C213.763 200.597 224.068 223.304 224.733 247.55C224.767 248.932 225.93 250 227.393 250H247.34C247.695 250 248.046 249.933 248.373 249.803C248.7 249.673 248.996 249.482 249.244 249.242C249.492 249.002 249.686 248.718 249.816 248.405C249.946 248.093 250.008 247.76 249.999 247.425C249.667 232.412 246.376 217.808 240.192 204.02V204.02ZM125 131.91C109.741 131.91 95.3792 126.288 84.5747 116.08C73.7703 105.873 67.8195 92.3053 67.8195 77.8894C67.8195 63.4736 73.7703 49.9058 84.5747 39.6985C95.3792 29.4912 109.741 23.8693 125 23.8693C140.259 23.8693 154.621 29.4912 165.425 39.6985C176.23 49.9058 182.18 63.4736 182.18 77.8894C182.18 92.3053 176.23 105.873 165.425 116.08C154.621 126.288 140.259 131.91 125 131.91Z" fill="#A3A3A3"/>
</svg>
