<svg width="210" height="35" viewBox="0 0 210 35" fill="none" xmlns="http://www.w3.org/2000/svg">
<rect width="210" height="34.8903" rx="17.4451" fill="#3A52EE"/>
<path fill-rule="evenodd" clip-rule="evenodd" d="M26 24.5807V10.1394C26 9.57203 26.2196 9.02785 26.6106 8.62663C27.0015 8.22541 27.5318 8 28.0846 8L36.4232 8C36.9761 8 37.5063 8.22541 37.8973 8.62663C38.2882 9.02785 38.5078 9.57203 38.5078 10.1394V24.5807C38.5079 24.6736 38.4844 24.7649 38.4396 24.8456C38.3949 24.9264 38.3304 24.9937 38.2526 25.0411C38.1747 25.0885 38.0862 25.1143 37.9957 25.1159C37.9053 25.1175 37.8159 25.0949 37.7365 25.0503L32.2539 21.9802L26.7713 25.0503C26.6919 25.0949 26.6026 25.1175 26.5121 25.1159C26.4216 25.1143 26.3331 25.0885 26.2553 25.0411C26.1774 24.9937 26.113 24.9264 26.0682 24.8456C26.0234 24.7649 25.9999 24.6736 26 24.5807ZM32.4207 12.3859C32.4055 12.3538 32.3817 12.3268 32.3523 12.3078C32.3228 12.2889 32.2887 12.2789 32.2539 12.2789C32.2191 12.2789 32.1851 12.2889 32.1556 12.3078C32.1261 12.3268 32.1024 12.3538 32.0871 12.3859L31.4263 13.7605C31.4131 13.7883 31.3935 13.8124 31.3691 13.8306C31.3448 13.8489 31.3165 13.8608 31.2866 13.8653L29.8066 14.0857C29.7725 14.091 29.7405 14.1059 29.7143 14.1288C29.688 14.1517 29.6685 14.1817 29.6579 14.2153C29.6473 14.249 29.646 14.285 29.6542 14.3193C29.6624 14.3537 29.6798 14.385 29.7044 14.4098L30.7738 15.4806C30.8176 15.5244 30.8374 15.5876 30.827 15.6496L30.5758 17.1622C30.5701 17.1971 30.5741 17.233 30.5872 17.2657C30.6002 17.2985 30.622 17.3269 30.6499 17.3476C30.6778 17.3684 30.7109 17.3808 30.7453 17.3834C30.7797 17.3859 30.8141 17.3786 30.8447 17.3622L32.1684 16.6477C32.195 16.6334 32.2245 16.626 32.2544 16.626C32.2844 16.626 32.3139 16.6334 32.3404 16.6477L33.6642 17.3622C33.6947 17.3783 33.729 17.3854 33.7633 17.3827C33.7975 17.38 33.8303 17.3676 33.8581 17.3468C33.8859 17.3261 33.9075 17.2978 33.9205 17.2653C33.9336 17.2327 33.9376 17.197 33.9321 17.1622L33.6798 15.6485C33.6745 15.6181 33.6765 15.5869 33.6855 15.5574C33.6946 15.528 33.7105 15.5012 33.7319 15.4795L34.8034 14.4087C34.828 14.3839 34.8454 14.3526 34.8536 14.3183C34.8618 14.2839 34.8606 14.2479 34.85 14.2143C34.8394 14.1806 34.8198 14.1506 34.7936 14.1277C34.7673 14.1048 34.7354 14.0899 34.7013 14.0846L33.2212 13.8642C33.1914 13.8597 33.1631 13.8478 33.1387 13.8295C33.1144 13.8113 33.0947 13.7872 33.0815 13.7594L32.4207 12.3859Z" fill="white"/>
<path d="M57.0167 25.24C56.2434 25.24 55.5301 25.1067 54.8767 24.84C54.2234 24.5733 53.6501 24.1933 53.1567 23.7C52.6767 23.2067 52.3101 22.62 52.0567 21.94L53.3367 21.34C53.6434 22.1133 54.1234 22.7267 54.7767 23.18C55.4301 23.62 56.1767 23.84 57.0167 23.84C57.6834 23.84 58.2767 23.7133 58.7967 23.46C59.3167 23.1933 59.7234 22.8133 60.0167 22.32C60.3101 21.8267 60.4567 21.2267 60.4567 20.52C60.4567 19.8133 60.3034 19.2133 59.9967 18.72C59.7034 18.2267 59.2967 17.8533 58.7767 17.6C58.2567 17.3467 57.6634 17.22 56.9967 17.22C56.8234 17.22 56.6301 17.2267 56.4167 17.24C56.2167 17.2533 56.0501 17.2733 55.9167 17.3L55.5967 16.6L59.6167 11.5H52.7567V10.1H61.4167V11.5L57.6567 16.24L57.4567 15.98C58.3501 16.0067 59.1434 16.22 59.8367 16.62C60.5301 17.0067 61.0701 17.5333 61.4567 18.2C61.8567 18.8667 62.0567 19.64 62.0567 20.52C62.0567 21.4 61.8434 22.2 61.4167 22.92C60.9901 23.6267 60.3967 24.1933 59.6367 24.62C58.8767 25.0333 58.0034 25.24 57.0167 25.24ZM73.1427 25.24C72.1427 25.24 71.236 25 70.4227 24.52C69.6227 24.0267 68.9893 23.3533 68.5227 22.5C68.056 21.6467 67.8227 20.68 67.8227 19.6C67.8227 18.52 68.0493 17.5667 68.5027 16.74C68.956 15.9 69.5693 15.24 70.3427 14.76C71.1293 14.28 72.0093 14.04 72.9827 14.04C73.756 14.04 74.4427 14.1867 75.0427 14.48C75.656 14.76 76.176 15.1467 76.6027 15.64C77.0293 16.12 77.356 16.6667 77.5827 17.28C77.8093 17.88 77.9227 18.5 77.9227 19.14C77.9227 19.2733 77.916 19.4267 77.9027 19.6C77.8893 19.76 77.8693 19.9267 77.8427 20.1H68.7827V18.7H76.9827L76.2627 19.3C76.3827 18.5667 76.296 17.9133 76.0027 17.34C75.7227 16.7533 75.316 16.2933 74.7827 15.96C74.2493 15.6133 73.6493 15.44 72.9827 15.44C72.316 15.44 71.696 15.6133 71.1227 15.96C70.5627 16.3067 70.1227 16.7933 69.8027 17.42C69.4827 18.0333 69.356 18.7667 69.4227 19.62C69.356 20.4733 69.4893 21.22 69.8227 21.86C70.1693 22.4867 70.636 22.9733 71.2227 23.32C71.8227 23.6667 72.4627 23.84 73.1427 23.84C73.9293 23.84 74.5893 23.6533 75.1227 23.28C75.656 22.9067 76.0893 22.44 76.4227 21.88L77.7027 22.56C77.4893 23.04 77.1627 23.4867 76.7227 23.9C76.2827 24.3 75.756 24.6267 75.1427 24.88C74.5427 25.12 73.876 25.24 73.1427 25.24ZM80.5673 25V14.28H82.0673V16.36L81.7273 16.28C81.994 15.5867 82.4273 15.04 83.0273 14.64C83.6407 14.24 84.3473 14.04 85.1473 14.04C85.9073 14.04 86.5873 14.2133 87.1873 14.56C87.8007 14.9067 88.2807 15.3867 88.6273 16C88.9873 16.6 89.1673 17.28 89.1673 18.04V25H87.6673V18.62C87.6673 17.9667 87.5473 17.4133 87.3073 16.96C87.0807 16.5067 86.754 16.16 86.3273 15.92C85.914 15.6667 85.434 15.54 84.8873 15.54C84.3407 15.54 83.854 15.6667 83.4273 15.92C83.0007 16.16 82.6673 16.5133 82.4273 16.98C82.1873 17.4333 82.0673 17.98 82.0673 18.62V25H80.5673ZM96.8722 25.24C95.8722 25.24 94.9722 25 94.1722 24.52C93.3722 24.0267 92.7389 23.36 92.2722 22.52C91.8189 21.6667 91.5922 20.7067 91.5922 19.64C91.5922 18.56 91.8189 17.6 92.2722 16.76C92.7389 15.92 93.3655 15.26 94.1522 14.78C94.9522 14.2867 95.8589 14.04 96.8722 14.04C97.7922 14.04 98.6122 14.24 99.3322 14.64C100.052 15.04 100.619 15.58 101.032 16.26L100.792 16.68V9.86H102.292V25H100.792V22.6L101.032 22.82C100.659 23.5933 100.099 24.1933 99.3522 24.62C98.6189 25.0333 97.7922 25.24 96.8722 25.24ZM96.9522 23.74C97.6722 23.74 98.3189 23.56 98.8922 23.2C99.4789 22.84 99.9389 22.3533 100.272 21.74C100.619 21.1133 100.792 20.4133 100.792 19.64C100.792 18.8667 100.619 18.1733 100.272 17.56C99.9389 16.9333 99.4789 16.44 98.8922 16.08C98.3189 15.72 97.6722 15.54 96.9522 15.54C96.2455 15.54 95.6055 15.72 95.0322 16.08C94.4589 16.44 94.0055 16.9267 93.6722 17.54C93.3522 18.1533 93.1922 18.8533 93.1922 19.64C93.1922 20.4133 93.3522 21.1133 93.6722 21.74C94.0055 22.3533 94.4522 22.84 95.0122 23.2C95.5855 23.56 96.2322 23.74 96.9522 23.74ZM110.392 25.24C109.379 25.24 108.459 25 107.632 24.52C106.805 24.0267 106.145 23.36 105.652 22.52C105.172 21.6667 104.932 20.7 104.932 19.62C104.932 18.5533 105.172 17.6 105.652 16.76C106.132 15.92 106.779 15.26 107.592 14.78C108.419 14.2867 109.352 14.04 110.392 14.04C111.432 14.04 112.359 14.28 113.172 14.76C113.999 15.24 114.645 15.9 115.112 16.74C115.592 17.58 115.832 18.54 115.832 19.62C115.832 20.7133 115.585 21.6867 115.092 22.54C114.599 23.38 113.939 24.04 113.112 24.52C112.299 25 111.392 25.24 110.392 25.24ZM110.392 23.74C111.112 23.74 111.759 23.56 112.332 23.2C112.919 22.84 113.379 22.3467 113.712 21.72C114.059 21.0933 114.232 20.3933 114.232 19.62C114.232 18.8467 114.059 18.1533 113.712 17.54C113.379 16.9267 112.919 16.44 112.332 16.08C111.759 15.72 111.112 15.54 110.392 15.54C109.672 15.54 109.019 15.72 108.432 16.08C107.859 16.44 107.399 16.9267 107.052 17.54C106.705 18.1533 106.532 18.8467 106.532 19.62C106.532 20.3933 106.705 21.0933 107.052 21.72C107.399 22.3467 107.859 22.84 108.432 23.2C109.019 23.56 109.672 23.74 110.392 23.74ZM118.478 25V14.28H119.978V16.04L119.778 15.78C120.031 15.2733 120.411 14.8733 120.918 14.58C121.438 14.2867 122.064 14.14 122.798 14.14H123.478V15.64H122.538C121.764 15.64 121.144 15.88 120.678 16.36C120.211 16.84 119.978 17.52 119.978 18.4V25H118.478ZM128.955 25.24C127.929 25.24 127.029 24.98 126.255 24.46C125.482 23.94 124.922 23.2333 124.575 22.34L125.835 21.74C126.142 22.3933 126.569 22.9133 127.115 23.3C127.675 23.6867 128.289 23.88 128.955 23.88C129.595 23.88 130.135 23.7267 130.575 23.42C131.015 23.1 131.235 22.6867 131.235 22.18C131.235 21.8067 131.129 21.5133 130.915 21.3C130.702 21.0733 130.455 20.9 130.175 20.78C129.895 20.66 129.649 20.5733 129.435 20.52L127.895 20.08C126.909 19.8 126.195 19.4067 125.755 18.9C125.315 18.3933 125.095 17.8067 125.095 17.14C125.095 16.5133 125.255 15.9667 125.575 15.5C125.895 15.0333 126.329 14.6733 126.875 14.42C127.422 14.1667 128.029 14.04 128.695 14.04C129.602 14.04 130.422 14.28 131.155 14.76C131.902 15.2267 132.429 15.88 132.735 16.72L131.455 17.32C131.189 16.72 130.802 16.2533 130.295 15.92C129.802 15.5733 129.249 15.4 128.635 15.4C128.035 15.4 127.555 15.5533 127.195 15.86C126.835 16.1667 126.655 16.5533 126.655 17.02C126.655 17.38 126.749 17.6667 126.935 17.88C127.122 18.0933 127.335 18.2533 127.575 18.36C127.829 18.4667 128.049 18.5467 128.235 18.6L130.015 19.12C130.882 19.3733 131.555 19.7667 132.035 20.3C132.529 20.8333 132.775 21.46 132.775 22.18C132.775 22.7667 132.609 23.2933 132.275 23.76C131.955 24.2267 131.509 24.5933 130.935 24.86C130.362 25.1133 129.702 25.24 128.955 25.24ZM140.291 25.24C139.291 25.24 138.384 25 137.571 24.52C136.771 24.0267 136.138 23.3533 135.671 22.5C135.204 21.6467 134.971 20.68 134.971 19.6C134.971 18.52 135.198 17.5667 135.651 16.74C136.104 15.9 136.718 15.24 137.491 14.76C138.278 14.28 139.158 14.04 140.131 14.04C140.904 14.04 141.591 14.1867 142.191 14.48C142.804 14.76 143.324 15.1467 143.751 15.64C144.178 16.12 144.504 16.6667 144.731 17.28C144.958 17.88 145.071 18.5 145.071 19.14C145.071 19.2733 145.064 19.4267 145.051 19.6C145.038 19.76 145.018 19.9267 144.991 20.1H135.931V18.7H144.131L143.411 19.3C143.531 18.5667 143.444 17.9133 143.151 17.34C142.871 16.7533 142.464 16.2933 141.931 15.96C141.398 15.6133 140.798 15.44 140.131 15.44C139.464 15.44 138.844 15.6133 138.271 15.96C137.711 16.3067 137.271 16.7933 136.951 17.42C136.631 18.0333 136.504 18.7667 136.571 19.62C136.504 20.4733 136.638 21.22 136.971 21.86C137.318 22.4867 137.784 22.9733 138.371 23.32C138.971 23.6667 139.611 23.84 140.291 23.84C141.078 23.84 141.738 23.6533 142.271 23.28C142.804 22.9067 143.238 22.44 143.571 21.88L144.851 22.56C144.638 23.04 144.311 23.4867 143.871 23.9C143.431 24.3 142.904 24.6267 142.291 24.88C141.691 25.12 141.024 25.24 140.291 25.24ZM147.716 25V14.28H149.216V16.32L148.976 16.02C149.269 15.3933 149.702 14.9067 150.276 14.56C150.862 14.2133 151.502 14.04 152.196 14.04C153.022 14.04 153.769 14.2733 154.436 14.74C155.102 15.2067 155.576 15.8133 155.856 16.56L155.436 16.58C155.702 15.7533 156.162 15.1267 156.816 14.7C157.482 14.26 158.216 14.04 159.016 14.04C159.736 14.04 160.396 14.2133 160.996 14.56C161.609 14.9067 162.096 15.3867 162.456 16C162.829 16.6 163.016 17.28 163.016 18.04V25H161.516V18.62C161.516 17.9667 161.396 17.4133 161.156 16.96C160.929 16.5067 160.616 16.16 160.216 15.92C159.816 15.6667 159.356 15.54 158.836 15.54C158.329 15.54 157.869 15.6667 157.456 15.92C157.042 16.16 156.716 16.5133 156.476 16.98C156.236 17.4333 156.116 17.98 156.116 18.62V25H154.616V18.62C154.616 17.9667 154.496 17.4133 154.256 16.96C154.029 16.5067 153.716 16.16 153.316 15.92C152.916 15.6667 152.456 15.54 151.936 15.54C151.416 15.54 150.949 15.6667 150.536 15.92C150.136 16.16 149.816 16.5133 149.576 16.98C149.336 17.4333 149.216 17.98 149.216 18.62V25H147.716ZM170.76 25.24C169.76 25.24 168.853 25 168.04 24.52C167.24 24.0267 166.607 23.3533 166.14 22.5C165.673 21.6467 165.44 20.68 165.44 19.6C165.44 18.52 165.667 17.5667 166.12 16.74C166.573 15.9 167.187 15.24 167.96 14.76C168.747 14.28 169.627 14.04 170.6 14.04C171.373 14.04 172.06 14.1867 172.66 14.48C173.273 14.76 173.793 15.1467 174.22 15.64C174.647 16.12 174.973 16.6667 175.2 17.28C175.427 17.88 175.54 18.5 175.54 19.14C175.54 19.2733 175.533 19.4267 175.52 19.6C175.507 19.76 175.487 19.9267 175.46 20.1H166.4V18.7H174.6L173.88 19.3C174 18.5667 173.913 17.9133 173.62 17.34C173.34 16.7533 172.933 16.2933 172.4 15.96C171.867 15.6133 171.267 15.44 170.6 15.44C169.933 15.44 169.313 15.6133 168.74 15.96C168.18 16.3067 167.74 16.7933 167.42 17.42C167.1 18.0333 166.973 18.7667 167.04 19.62C166.973 20.4733 167.107 21.22 167.44 21.86C167.787 22.4867 168.253 22.9733 168.84 23.32C169.44 23.6667 170.08 23.84 170.76 23.84C171.547 23.84 172.207 23.6533 172.74 23.28C173.273 22.9067 173.707 22.44 174.04 21.88L175.32 22.56C175.107 23.04 174.78 23.4867 174.34 23.9C173.9 24.3 173.373 24.6267 172.76 24.88C172.16 25.12 171.493 25.24 170.76 25.24ZM178.185 25V14.28H179.685V16.36L179.345 16.28C179.611 15.5867 180.045 15.04 180.645 14.64C181.258 14.24 181.965 14.04 182.765 14.04C183.525 14.04 184.205 14.2133 184.805 14.56C185.418 14.9067 185.898 15.3867 186.245 16C186.605 16.6 186.785 17.28 186.785 18.04V25H185.285V18.62C185.285 17.9667 185.165 17.4133 184.925 16.96C184.698 16.5067 184.371 16.16 183.945 15.92C183.531 15.6667 183.051 15.54 182.505 15.54C181.958 15.54 181.471 15.6667 181.045 15.92C180.618 16.16 180.285 16.5133 180.045 16.98C179.805 17.4333 179.685 17.98 179.685 18.62V25H178.185ZM193.749 25.12C192.789 25.12 192.049 24.84 191.529 24.28C191.009 23.72 190.749 22.92 190.749 21.88V15.78H188.769V14.28H189.269C189.723 14.28 190.083 14.1333 190.349 13.84C190.616 13.5333 190.749 13.1533 190.749 12.7V11.8H192.249V14.28H194.609V15.78H192.249V21.88C192.249 22.24 192.303 22.56 192.409 22.84C192.516 23.1067 192.696 23.32 192.949 23.48C193.216 23.64 193.569 23.72 194.009 23.72C194.116 23.72 194.243 23.7133 194.389 23.7C194.536 23.6867 194.663 23.6733 194.769 23.66V25C194.609 25.04 194.429 25.0667 194.229 25.08C194.029 25.1067 193.869 25.12 193.749 25.12Z" fill="white"/>
</svg>
