<svg width="19" height="18" viewBox="0 0 19 18" fill="none" xmlns="http://www.w3.org/2000/svg">
<path fill-rule="evenodd" clip-rule="evenodd" d="M9.5 0C4.25125 0 0 4.12937 0 9.22764C0 13.3109 2.71938 16.7597 6.49563 17.9824C6.97063 18.0631 7.14875 17.7863 7.14875 17.5441C7.14875 17.3249 7.13688 16.5982 7.13688 15.8254C4.75 16.2522 4.1325 15.2602 3.9425 14.7412C3.83563 14.4759 3.3725 13.6569 2.96875 13.4378C2.63625 13.2647 2.16125 12.838 2.95687 12.8264C3.705 12.8149 4.23938 13.4954 4.4175 13.7723C5.2725 15.1679 6.63813 14.7758 7.18438 14.5335C7.2675 13.9337 7.51688 13.53 7.79 13.2993C5.67625 13.0687 3.4675 12.2728 3.4675 8.74319C3.4675 7.73969 3.83563 6.9092 4.44125 6.26326C4.34625 6.03257 4.01375 5.08674 4.53625 3.81794C4.53625 3.81794 5.33187 3.57571 7.14875 4.76377C7.90875 4.55615 8.71625 4.45234 9.52375 4.45234C10.3313 4.45234 11.1388 4.55615 11.8988 4.76377C13.7156 3.56418 14.5113 3.81794 14.5113 3.81794C15.0338 5.08674 14.7013 6.03257 14.6063 6.26326C15.2119 6.9092 15.58 7.72815 15.58 8.74319C15.58 12.2843 13.3594 13.0687 11.2456 13.2993C11.59 13.5877 11.8869 14.1414 11.8869 15.0065C11.8869 16.2407 11.875 17.2326 11.875 17.5441C11.875 17.7863 12.0531 18.0746 12.5281 17.9824C14.414 17.3639 16.0528 16.1866 17.2137 14.6161C18.3747 13.0456 18.9994 11.1611 19 9.22764C19 4.12937 14.7488 0 9.5 0Z" fill="#ffffff"/>
</svg>
