<svg width="40" height="40" viewBox="0 0 40 40" fill="none" xmlns="http://www.w3.org/2000/svg">
<path d="M37.2517 13.365L26.635 2.7483C24.8753 0.988593 22.4886 0 20 0C17.5114 0 15.1247 0.988593 13.365 2.7483L2.7483 13.365C0.988593 15.1247 0 17.5114 0 20C0 22.4886 0.988593 24.8753 2.7483 26.635L13.365 37.2517C15.1247 39.0114 17.5114 40 20 40C22.4886 40 24.8753 39.0114 26.635 37.2517L37.2517 26.635C39.0114 24.8753 40 22.4886 40 20C40 17.5114 39.0114 15.1247 37.2517 13.365ZM20 26.5883C19.1348 26.5883 18.2781 26.4179 17.4788 26.0868C16.6794 25.7557 15.9531 25.2704 15.3413 24.6587C14.7296 24.0469 14.2443 23.3206 13.9132 22.5213C13.5821 21.7219 13.4117 20.8652 13.4117 20C13.4117 19.1348 13.5821 18.2781 13.9132 17.4788C14.2443 16.6794 14.7296 15.9531 15.3413 15.3413C15.9531 14.7296 16.6794 14.2443 17.4788 13.9132C18.2781 13.5821 19.1348 13.4117 20 13.4117C21.7473 13.4117 23.4231 14.1058 24.6587 15.3413C25.8942 16.5769 26.5883 18.2527 26.5883 20C26.5883 21.7473 25.8942 23.4231 24.6587 24.6587C23.4231 25.8942 21.7473 26.5883 20 26.5883Z" fill="#333333"/>
</svg>
