<svg width="36" height="36" viewBox="0 0 36 36" fill="none" xmlns="http://www.w3.org/2000/svg">
<path d="M33.5265 12.0285L23.9715 2.47347C22.3878 0.889734 20.2397 0 18 0C15.7603 0 13.6122 0.889734 12.0285 2.47347L2.47347 12.0285C0.889734 13.6122 0 15.7603 0 18C0 20.2397 0.889734 22.3878 2.47347 23.9715L12.0285 33.5265C13.6122 35.1103 15.7603 36 18 36C20.2397 36 22.3878 35.1103 23.9715 33.5265L33.5265 23.9715C35.1103 22.3878 36 20.2397 36 18C36 15.7603 35.1103 13.6122 33.5265 12.0285ZM18 23.9295C17.2213 23.9295 16.4503 23.7761 15.7309 23.4782C15.0115 23.1802 14.3578 22.7434 13.8072 22.1928C13.2566 21.6422 12.8198 20.9885 12.5218 20.2691C12.2239 19.5497 12.0705 18.7787 12.0705 18C12.0705 17.2213 12.2239 16.4503 12.5218 15.7309C12.8198 15.0115 13.2566 14.3578 13.8072 13.8072C14.3578 13.2566 15.0115 12.8198 15.7309 12.5218C16.4503 12.2239 17.2213 12.0705 18 12.0705C19.5726 12.0705 21.0808 12.6952 22.1928 13.8072C23.3048 14.9192 23.9295 16.4274 23.9295 18C23.9295 19.5726 23.3048 21.0808 22.1928 22.1928C21.0808 23.3048 19.5726 23.9295 18 23.9295Z" fill="#3A52EE"/>
</svg>
