<svg width="43" height="44" viewBox="0 0 43 44" fill="none" xmlns="http://www.w3.org/2000/svg">
<path fill-rule="evenodd" clip-rule="evenodd" d="M0.736166 25.391L20.5921 2.40529C21.3722 1.50215 22.4792 0.945926 23.6695 0.858984C24.8598 0.772042 26.0359 1.1615 26.9391 1.94168L40.5605 13.7084C41.4637 14.4886 42.0199 15.5956 42.1069 16.7859C42.1939 17.9762 41.8044 19.1522 41.0243 20.0554L21.1683 43.0411C21.0407 43.189 20.8768 43.3011 20.6927 43.3665C20.5086 43.4318 20.3107 43.4481 20.1184 43.4137C19.926 43.3793 19.746 43.2954 19.596 43.1702C19.4459 43.0451 19.3311 42.8831 19.2627 42.7001L14.5278 30.0769L1.35046 27.2268C1.15947 27.1858 0.982466 27.0957 0.836872 26.9654C0.691277 26.8351 0.582111 26.6692 0.520121 26.484C0.458131 26.2987 0.44545 26.1005 0.483333 25.9088C0.521215 25.7172 0.608353 25.5387 0.736166 25.391ZM27.9919 15.0412C28.0111 14.9687 28.0095 14.8922 27.9874 14.8204C27.9652 14.7487 27.9234 14.6847 27.8665 14.6356C27.8097 14.5866 27.7403 14.5544 27.6661 14.5429C27.5919 14.5314 27.516 14.541 27.447 14.5706L24.4775 15.8259C24.4177 15.8515 24.3525 15.8621 24.2877 15.8569C24.2228 15.8516 24.1602 15.8306 24.1053 15.7957L21.3845 14.0578C21.3215 14.0182 21.2488 13.9969 21.1744 13.9963C21.1 13.9957 21.0269 14.0158 20.9633 14.0544C20.8997 14.093 20.8481 14.1485 20.8143 14.2148C20.7805 14.2811 20.7658 14.3555 20.7719 14.4296L21.0466 17.643C21.0578 17.7746 21.0034 17.903 20.9011 17.9871L18.411 20.0401C18.3537 20.0877 18.3108 20.1504 18.2872 20.221C18.2635 20.2916 18.2601 20.3674 18.2771 20.4399C18.2942 20.5124 18.3311 20.5787 18.3838 20.6314C18.4364 20.684 18.5027 20.7209 18.5752 20.738L21.7201 21.4686C21.7831 21.4834 21.8415 21.5132 21.8904 21.5554C21.9394 21.5977 21.9773 21.6512 22.0011 21.7113L23.181 24.7166C23.2088 24.7854 23.2551 24.845 23.3147 24.889C23.3744 24.933 23.4451 24.9596 23.519 24.9657C23.5928 24.9719 23.667 24.9575 23.7331 24.924C23.7993 24.8906 23.8548 24.8394 23.8936 24.7762L25.5628 22.0111C25.5959 21.9552 25.6421 21.9082 25.6974 21.8741C25.7527 21.8401 25.8155 21.82 25.8803 21.8156L29.1029 21.6233C29.1772 21.6185 29.2486 21.5932 29.3093 21.5501C29.3699 21.5071 29.4174 21.4479 29.4463 21.3794C29.4753 21.3109 29.4846 21.2357 29.4732 21.1621C29.4618 21.0886 29.4301 21.0197 29.3817 20.9632L27.2669 18.5239C27.2244 18.4746 27.1945 18.4157 27.1799 18.3523C27.1652 18.2889 27.1663 18.2229 27.1829 18.1599L27.9919 15.0412Z" fill="#FFC72B"/>
</svg>
