<svg width="70" height="70" viewBox="0 0 70 70" fill="none" xmlns="http://www.w3.org/2000/svg">
<circle cx="35" cy="35" r="35" fill="#3A52EE"/>
<path d="M24.5171 52.0032C23.5798 52.5118 22.5163 51.6205 22.7057 50.4825L24.7211 38.3327L16.1668 29.7122C15.3679 28.9056 15.7832 27.4312 16.854 27.2719L28.7469 25.4841L34.0499 14.3694C34.5282 13.3676 22.7854 50.7439 23.1653 51.8401L38.9523 19.9267L41.6038 25.4841L53.4967 27.2719C54.5675 27.4312 54.9827 28.9056 54.1814 29.7122L45.6296 38.3327L47.6449 50.4825C47.8343 51.6205 46.7708 52.5118 45.8336 52.0032L35.1717 46.2082L24.7211 52.0032H24.5171Z" fill="white"/>
</svg>
