<svg width="64" height="59" viewBox="0 0 64 59" fill="none" xmlns="http://www.w3.org/2000/svg">
<path fill-rule="evenodd" clip-rule="evenodd" d="M1.44843 23.9068L40.5304 1.34281C42.066 0.456243 43.8909 0.216007 45.6036 0.674954C47.3163 1.1339 48.7766 2.25444 49.6632 3.79005L63.0348 26.9503C63.9213 28.4859 64.1616 30.3108 63.7027 32.0235C63.2438 33.7363 62.1233 35.1966 60.5877 36.0831L21.5058 58.6471C21.2545 58.7924 20.9697 58.8698 20.6795 58.8716C20.3893 58.8734 20.1036 58.7996 19.8505 58.6575C19.5974 58.5153 19.3857 58.3098 19.2363 58.061C19.0868 57.8121 19.0047 57.5287 18.998 57.2385L18.5147 37.2138L1.41441 26.7829C1.16645 26.632 0.962038 26.4192 0.821304 26.1653C0.68057 25.9115 0.60837 25.6253 0.611801 25.3351C0.615236 25.0449 0.694184 24.7605 0.840881 24.5101C0.987581 24.2597 1.19696 24.0517 1.44843 23.9068ZM44.7471 22.6861C44.8095 22.5937 44.8446 22.4856 44.8485 22.3741C44.8524 22.2627 44.8249 22.1524 44.7691 22.0558C44.7134 21.9592 44.6316 21.8802 44.5331 21.8279C44.4347 21.7755 44.3235 21.7519 44.2122 21.7597L39.4325 22.072C39.336 22.0787 39.2394 22.0618 39.1509 22.0228C39.0625 21.9837 38.9849 21.9237 38.9248 21.8479L35.955 18.0813C35.886 17.9949 35.7943 17.9295 35.6902 17.8923C35.5861 17.8552 35.4737 17.8477 35.3657 17.8709C35.2576 17.894 35.1581 17.9468 35.0783 18.0233C34.9985 18.0998 34.9417 18.197 34.914 18.304L33.7311 22.9474C33.6826 23.1375 33.5435 23.2911 33.3589 23.3591L28.8626 25.0248C28.759 25.0636 28.6683 25.1306 28.6006 25.2181C28.533 25.3057 28.4911 25.4103 28.4796 25.5204C28.4682 25.6305 28.4877 25.7415 28.5359 25.8411C28.5841 25.9407 28.6591 26.0249 28.7525 26.0842L32.8091 28.6444C32.8902 28.6959 32.9576 28.7662 33.0056 28.8494C33.0537 28.9325 33.0808 29.0261 33.0849 29.1221L33.2738 33.9153C33.2792 34.0253 33.315 34.1316 33.3773 34.2225C33.4395 34.3133 33.5258 34.3851 33.6264 34.4298C33.7271 34.4745 33.8382 34.4905 33.9473 34.4758C34.0565 34.4611 34.1594 34.4164 34.2447 34.3467L37.9366 31.2811C38.0103 31.2188 38.0981 31.1754 38.1923 31.1546C38.2865 31.1339 38.3844 31.1363 38.4775 31.1618L43.0936 32.4648C43.2001 32.4944 43.3127 32.4937 43.4189 32.4629C43.525 32.432 43.6205 32.3723 43.6945 32.2902C43.7686 32.2082 43.8184 32.1071 43.8382 31.9984C43.8581 31.8897 43.8473 31.7776 43.807 31.6746L42.0299 27.2194C41.9943 27.1295 41.9811 27.0323 41.9915 26.9361C42.0019 26.84 42.0356 26.7478 42.0896 26.6677L44.7471 22.6861Z" fill="#FF581B"/>
</svg>
