<svg width="70" height="70" viewBox="0 0 70 70" fill="none" xmlns="http://www.w3.org/2000/svg">
<circle cx="35" cy="35" r="35" fill="#FF5515"/>
<path d="M24.5171 51.6536C23.5798 52.1622 22.5163 51.2709 22.7057 50.1329L24.7211 37.983L16.1668 29.3625C15.3679 28.556 15.7832 27.0816 16.854 26.9223L28.7469 25.1345L34.0499 14.0198C34.5282 13.018 22.7854 50.3943 23.1653 51.4904L38.9523 19.5771L41.6038 25.1345L53.4967 26.9223C54.5675 27.0816 54.9827 28.556 54.1814 29.3625L45.6296 37.983L47.6449 50.1329C47.8343 51.2709 46.7708 52.1622 45.8336 51.6536L35.1717 45.8586L24.7211 51.6536H24.5171Z" fill="white"/>
</svg>
