<svg width="66" height="67" viewBox="0 0 66 67" fill="none" xmlns="http://www.w3.org/2000/svg">
<path fill-rule="evenodd" clip-rule="evenodd" d="M34.38 66.3194L2.69419 31.3469C1.44921 29.9728 0.801107 28.1604 0.892446 26.3084C0.983784 24.4564 1.80709 22.7165 3.18124 21.4715L23.9062 2.69428C25.2803 1.44927 27.0928 0.801124 28.9448 0.892423C30.7968 0.983719 32.5366 1.80698 33.7816 3.1811L65.4674 38.1536C65.6714 38.3784 65.8133 38.6524 65.8791 38.9487C65.945 39.245 65.9326 39.5533 65.8431 39.8434C65.7537 40.1334 65.5902 40.3952 65.3688 40.6028C65.1475 40.8105 64.8759 40.957 64.5807 41.0278L44.2179 45.9389L37.3274 65.7198C37.2279 66.0065 37.0554 66.2624 36.827 66.4623C36.5986 66.6622 36.322 66.7991 36.0246 66.8596C35.7271 66.9201 35.4191 66.9021 35.1307 66.8074C34.8423 66.7127 34.5836 66.5445 34.38 66.3194ZM23.5813 22.3286C23.473 22.2853 23.3548 22.2732 23.24 22.2938C23.1252 22.3144 23.0185 22.3668 22.9321 22.4451C22.8457 22.5234 22.783 22.6244 22.7512 22.7366C22.7194 22.8488 22.7198 22.9677 22.7523 23.0797L24.1259 27.8967C24.154 27.9938 24.158 28.0963 24.1376 28.1954C24.1172 28.2944 24.073 28.387 24.0087 28.4651L20.8136 32.3317C20.7405 32.4212 20.6939 32.5294 20.6788 32.644C20.6638 32.7586 20.681 32.8751 20.7285 32.9805C20.776 33.0859 20.8519 33.176 20.9477 33.2406C21.0434 33.3053 21.1554 33.342 21.2709 33.3466L26.2783 33.5316C26.4833 33.5392 26.671 33.6475 26.7812 33.8212L29.4757 38.0499C29.5382 38.1473 29.6267 38.2252 29.7311 38.2751C29.8355 38.3249 29.9518 38.3447 30.0668 38.3321C30.1818 38.3195 30.2911 38.2751 30.3823 38.2038C30.4734 38.1326 30.5429 38.0374 30.583 37.9288L32.3052 33.2174C32.3399 33.1232 32.3969 33.0387 32.4713 32.9713C32.5458 32.9038 32.6354 32.8554 32.7327 32.8301L37.5906 31.5798C37.7018 31.55 37.8027 31.4899 37.8818 31.4062C37.9609 31.3225 38.0153 31.2185 38.0388 31.1057C38.0623 30.993 38.0541 30.8759 38.015 30.7676C37.9759 30.6593 37.9075 30.5639 37.8175 30.4921L33.8694 27.3945C33.7895 27.3328 33.7258 27.2527 33.6837 27.1609C33.6417 27.0692 33.6226 26.9686 33.6281 26.8678L33.9418 21.8618C33.9486 21.7464 33.923 21.6314 33.8681 21.5297C33.8132 21.428 33.731 21.3436 33.6308 21.286C33.5306 21.2284 33.4164 21.1998 33.3008 21.2035C33.1853 21.2072 33.0731 21.243 32.9768 21.3069L28.8146 24.1062C28.7305 24.1624 28.6341 24.1973 28.5335 24.2079C28.4329 24.2185 28.3313 24.2044 28.2374 24.1668L23.5813 22.3286Z" fill="#6BA6FF"/>
</svg>
