<svg width="42" height="50" viewBox="0 0 42 50" fill="none" xmlns="http://www.w3.org/2000/svg">
<rect x="3.88623" y="4.26123" width="37.2448" height="35.5114" fill="white"/>
<path fill-rule="evenodd" clip-rule="evenodd" d="M4.60883e-07 48.4364V6.24986C4.60883e-07 4.59229 0.725445 3.00262 2.01674 1.83054C3.30804 0.658465 5.05942 0 6.88559 0H34.428C36.2541 0 38.0055 0.658465 39.2968 1.83054C40.5881 3.00262 41.3136 4.59229 41.3136 6.24986V48.4364C41.3138 48.7077 41.2361 48.9744 41.0883 49.2103C40.9405 49.4461 40.7275 49.6429 40.4705 49.7813C40.2134 49.9198 39.921 49.995 39.6221 49.9998C39.3232 50.0045 39.0281 49.9385 38.7659 49.8082L20.6568 40.8397L2.54767 49.8082C2.28543 49.9385 1.99035 50.0045 1.69146 49.9998C1.39258 49.995 1.1002 49.9198 0.843113 49.7813C0.586021 49.6429 0.373077 49.4461 0.225244 49.2103C0.0774097 48.9744 -0.000218252 48.7077 4.60883e-07 48.4364Z" fill="#3A52EE"/>
<path d="M12.8996 34.1472C12.2453 34.4939 11.503 33.8862 11.6352 33.1104L13.0419 24.8264L7.07077 18.9489C6.51314 18.399 6.80297 17.3937 7.55043 17.2851L15.8521 16.0662L19.5538 8.48806C19.8877 7.80504 11.6908 33.2885 11.956 34.0359L22.9758 12.2771L24.8267 16.0662L33.1283 17.2851C33.8758 17.3937 34.1656 18.399 33.6063 18.9489L27.6368 24.8264L29.0436 33.1104C29.1758 33.8862 28.4334 34.4939 27.7792 34.1472L20.3368 30.1961L13.0419 34.1472H12.8996Z" fill="white"/>
</svg>
