<svg width="40" height="40" viewBox="0 0 40 40" fill="none" xmlns="http://www.w3.org/2000/svg">
<path d="M20 40C31.0457 40 40 31.0457 40 20C40 8.95431 31.0457 0 20 0C8.95431 0 0 8.95431 0 20C0 31.0457 8.95431 40 20 40Z" fill="#333333"/>
<path fill-rule="evenodd" clip-rule="evenodd" d="M12.9971 10H22.6638C26.5298 10 29.6638 13.134 29.6638 17C29.6638 20.866 26.5298 24 22.6638 24H16.9971V30H12.9971V10ZM16.9978 20.0024H22.6645C24.3212 20.0024 25.6645 18.6593 25.6645 17.0024C25.6645 15.3456 24.3212 14.0024 22.6645 14.0024H16.9978V20.0024Z" fill="white"/>
</svg>
