<svg width="20" height="17" viewBox="0 0 20 17" fill="none" xmlns="http://www.w3.org/2000/svg">
<path d="M20 2.72065C19.2645 3.04136 18.4744 3.25807 17.6438 3.35602C18.5008 2.85135 19.142 2.05708 19.4477 1.12139C18.6425 1.59205 17.7612 1.92335 16.8422 2.10088C16.2242 1.45152 15.4057 1.02112 14.5136 0.876489C13.6216 0.731861 12.706 0.881099 11.909 1.30103C11.1119 1.72097 10.4781 2.38811 10.1058 3.19887C9.73358 4.00963 9.64374 4.91865 9.85026 5.78481C8.2187 5.7042 6.62259 5.28687 5.16553 4.55993C3.70847 3.83299 2.42301 2.81267 1.39258 1.56519C1.04025 2.16329 0.837664 2.85674 0.837664 3.59526C0.837271 4.26009 1.00364 4.91475 1.32201 5.50113C1.64038 6.08752 2.10091 6.58751 2.66273 6.95674C2.01117 6.93633 1.37397 6.76308 0.804193 6.45139V6.5034C0.804127 7.43586 1.13189 8.33962 1.73186 9.06134C2.33184 9.78306 3.16707 10.2783 4.09583 10.463C3.4914 10.624 2.85769 10.6477 2.24258 10.5323C2.50462 11.3346 3.01506 12.0363 3.70243 12.5389C4.3898 13.0416 5.21969 13.3201 6.07593 13.3356C4.62242 14.4585 2.82735 15.0675 0.979477 15.0649C0.652146 15.0649 0.325091 15.0461 0 15.0085C1.87569 16.1953 4.05914 16.8252 6.28909 16.8227C13.8378 16.8227 17.9644 10.6701 17.9644 5.33407C17.9644 5.16071 17.96 4.98562 17.9521 4.81225C18.7548 4.24101 19.4476 3.53362 19.9982 2.72325L20 2.72065V2.72065Z" fill="#333333"/>
</svg>
