<svg width="30" height="25" viewBox="0 0 30 25" fill="none" xmlns="http://www.w3.org/2000/svg">
<path d="M30 2.96546C28.8968 3.46658 27.7116 3.80518 26.4657 3.95822C27.7513 3.16969 28.713 1.92863 29.1716 0.466611C27.9638 1.20203 26.6419 1.71968 25.2634 1.99707C24.3364 0.98245 23.1085 0.309944 21.7704 0.0839617C20.4324 -0.142021 19.059 0.0911637 17.8634 0.747312C16.6679 1.40346 15.7171 2.44586 15.1588 3.71268C14.6004 4.97949 14.4656 6.39985 14.7754 7.75322C12.328 7.62725 9.93389 6.97519 7.74829 5.83934C5.5627 4.70349 3.63451 3.10924 2.08888 1.16006C1.56038 2.09459 1.2565 3.1781 1.2565 4.33203C1.25591 5.37084 1.50546 6.39374 1.98302 7.30997C2.46057 8.2262 3.15136 9.00743 3.9941 9.58435C3.01675 9.55247 2.06096 9.28176 1.20629 8.79474V8.876C1.20619 10.333 1.69783 11.7451 2.59779 12.8728C3.49775 14.0005 4.7506 14.7743 6.14375 15.0628C5.2371 15.3144 4.28654 15.3514 3.36387 15.1712C3.75693 16.4248 4.52259 17.5211 5.55364 18.3065C6.5847 19.0919 7.82954 19.5272 9.11389 19.5513C6.93363 21.3058 4.24102 22.2575 1.46922 22.2533C0.978219 22.2534 0.487637 22.224 0 22.1653C2.81354 24.0196 6.08871 25.0038 9.43363 25C20.7566 25 26.9466 15.3865 26.9466 7.04894C26.9466 6.77806 26.94 6.50447 26.9281 6.23359C28.1322 5.34102 29.1715 4.23573 29.9974 2.96952L30 2.96546V2.96546Z" fill="#333333"/>
</svg>
